<svg width="58" height="12" viewBox="0 0 58 12" fill="none" xmlns="http://www.w3.org/2000/svg">
<path d="M5.53229 2.22264C5.7153 1.70118 6.51216 1.70118 6.69517 2.22264L7.34907 4.0858C7.43092 4.319 7.66565 4.47689 7.93051 4.47689H10.0466C10.6388 4.47689 10.8851 5.17851 10.4059 5.5008L8.69399 6.65229C8.47972 6.79642 8.39006 7.05189 8.4719 7.2851L9.1258 9.14825C9.30881 9.66972 8.66414 10.1033 8.18501 9.78106L6.47308 8.62957C6.25881 8.48544 5.96866 8.48544 5.75438 8.62957L4.04246 9.78106C3.56332 10.1033 2.91865 9.66972 3.10166 9.14825L3.75556 7.2851C3.83741 7.05189 3.74774 6.79642 3.53347 6.65229L1.82154 5.5008C1.34241 5.17851 1.58865 4.47689 2.1809 4.47689H4.29695C4.56181 4.47689 4.79655 4.319 4.87839 4.0858L5.53229 2.22264Z" fill="#F59E0B"/>
<path d="M14.7016 9.47492L16.4136 8.35405C16.5104 8.29063 16.6228 8.25588 16.7367 8.2498V1.73779C16.5041 1.7497 16.2785 1.87629 16.1915 2.11756L15.5376 3.93115C15.4557 4.15815 15.221 4.31185 14.9561 4.31185H12.8401C12.2478 4.31185 12.0016 4.9948 12.4807 5.30851L14.1926 6.42938C14.4069 6.56967 14.4966 6.81835 14.4147 7.04535L13.7608 8.85894C13.5778 9.36654 14.2225 9.78863 14.7016 9.47492Z" fill="#F59E0B"/>
<path d="M18.0084 3.9311L17.3545 2.11751C17.2589 1.85238 16.9958 1.72574 16.7402 1.73758V8.24958C16.8771 8.24296 17.016 8.27777 17.1324 8.35401L18.8443 9.47487C19.3234 9.78858 19.9681 9.36649 19.7851 8.8589L19.1312 7.0453C19.0494 6.8183 19.139 6.56962 19.3533 6.42933L21.0652 5.30846C21.5444 4.99476 21.2981 4.3118 20.7059 4.3118H18.5898C18.325 4.3118 18.0902 4.15811 18.0084 3.9311Z" fill="#D4D4D8"/>
<path d="M26.8506 2.22264C27.0337 1.70118 27.8305 1.70118 28.0135 2.22264L28.6674 4.0858C28.7493 4.319 28.984 4.47689 29.2489 4.47689H31.3649C31.9572 4.47689 32.2034 5.17851 31.7243 5.5008L30.0124 6.65229C29.7981 6.79642 29.7084 7.05189 29.7903 7.2851L30.4442 9.14825C30.6272 9.66972 29.9825 10.1033 29.5034 9.78106L27.7914 8.62957C27.5772 8.48544 27.287 8.48544 27.0727 8.62957L25.3608 9.78106C24.8817 10.1033 24.237 9.66972 24.42 9.14825L25.0739 7.2851C25.1558 7.05189 25.0661 6.79642 24.8518 6.65229L23.1399 5.5008C22.6608 5.17851 22.907 4.47689 23.4993 4.47689H25.6153C25.8802 4.47689 26.1149 4.319 26.1968 4.0858L26.8506 2.22264Z" fill="#D4D4D8"/>
<path d="M39.0777 2.22264C39.2607 1.70118 40.0576 1.70118 40.2406 2.22264L40.8945 4.0858C40.9763 4.319 41.2111 4.47689 41.4759 4.47689H43.592C44.1842 4.47689 44.4305 5.17851 43.9513 5.5008L42.2394 6.65229C42.0251 6.79642 41.9355 7.05189 42.0173 7.2851L42.6712 9.14825C42.8542 9.66972 42.2096 10.1033 41.7304 9.78106L40.0185 8.62957C39.8042 8.48544 39.5141 8.48544 39.2998 8.62957L37.5879 9.78106C37.1087 10.1033 36.4641 9.66972 36.6471 9.14825L37.301 7.2851C37.3828 7.05189 37.2932 6.79642 37.0789 6.65229L35.367 5.5008C34.8878 5.17851 35.1341 4.47689 35.7263 4.47689H37.8424C38.1072 4.47689 38.342 4.319 38.4238 4.0858L39.0777 2.22264Z" fill="#D4D4D8"/>
<path d="M51.3052 2.22264C51.4883 1.70118 52.2851 1.70118 52.4681 2.22264L53.122 4.0858C53.2039 4.319 53.4386 4.47689 53.7035 4.47689H55.8195C56.4118 4.47689 56.658 5.17851 56.1789 5.5008L54.4669 6.65229C54.2527 6.79642 54.163 7.05189 54.2449 7.2851L54.8988 9.14825C55.0818 9.66972 54.4371 10.1033 53.958 9.78106L52.246 8.62957C52.0318 8.48544 51.7416 8.48544 51.5273 8.62957L49.8154 9.78106C49.3363 10.1033 48.6916 9.66972 48.8746 9.14825L49.5285 7.2851C49.6104 7.05189 49.5207 6.79642 49.3064 6.65229L47.5945 5.5008C47.1154 5.17851 47.3616 4.47689 47.9538 4.47689H50.0699C50.3348 4.47689 50.5695 4.319 50.6513 4.0858L51.3052 2.22264Z" fill="#D4D4D8"/>
</svg>
