<svg width="58" height="12" viewBox="0 0 58 12" fill="none" xmlns="http://www.w3.org/2000/svg">
<path d="M5.24836 2.22264C5.42198 1.70118 6.17796 1.70118 6.35158 2.22264L6.97193 4.0858C7.04958 4.319 7.27227 4.47689 7.52354 4.47689H9.53103C10.0929 4.47689 10.3265 5.17851 9.87195 5.5008L8.24785 6.65229C8.04457 6.79642 7.95951 7.05189 8.03716 7.2851L8.65751 9.14826C8.83113 9.66972 8.21953 10.1033 7.76498 9.78106L6.14088 8.62957C5.9376 8.48544 5.66234 8.48544 5.45905 8.62957L3.83496 9.78106C3.3804 10.1033 2.76881 9.66972 2.94243 9.14825L3.56278 7.2851C3.64043 7.05189 3.55537 6.79642 3.35208 6.65229L1.72799 5.5008C1.27344 5.17851 1.50705 4.47689 2.0689 4.47689H4.0764C4.32767 4.47689 4.55036 4.319 4.62801 4.0858L5.24836 2.22264Z" fill="#F59E0B"/>
<path d="M16.8485 2.22264C17.0221 1.70118 17.7781 1.70118 17.9517 2.22264L18.572 4.0858C18.6497 4.319 18.8724 4.47689 19.1236 4.47689H21.1311C21.693 4.47689 21.9266 5.17851 21.472 5.5008L19.848 6.65229C19.6447 6.79642 19.5596 7.05189 19.6373 7.2851L20.2576 9.14826C20.4312 9.66972 19.8196 10.1033 19.3651 9.78106L17.741 8.62957C17.5377 8.48544 17.2624 8.48544 17.0592 8.62957L15.4351 9.78106C14.9805 10.1033 14.3689 9.66972 14.5425 9.14825L15.1629 7.2851C15.2405 7.05189 15.1555 6.79642 14.9522 6.65229L13.3281 5.5008C12.8735 5.17851 13.1071 4.47689 13.669 4.47689H15.6765C15.9278 4.47689 16.1505 4.319 16.2281 4.0858L16.8485 2.22264Z" fill="#D4D4D8"/>
<path d="M28.4481 2.22264C28.6217 1.70118 29.3777 1.70118 29.5513 2.22264L30.1716 4.0858C30.2493 4.319 30.472 4.47689 30.7232 4.47689H32.7307C33.2926 4.47689 33.5262 5.17851 33.0717 5.5008L31.4476 6.65229C31.2443 6.79642 31.1592 7.05189 31.2369 7.2851L31.8572 9.14826C32.0308 9.66972 31.4192 10.1033 30.9647 9.78106L29.3406 8.62957C29.1373 8.48544 28.862 8.48544 28.6588 8.62957L27.0347 9.78106C26.5801 10.1033 25.9685 9.66972 26.1421 9.14825L26.7625 7.2851C26.8401 7.05189 26.7551 6.79642 26.5518 6.65229L24.9277 5.5008C24.4731 5.17851 24.7068 4.47689 25.2686 4.47689H27.2761C27.5274 4.47689 27.7501 4.319 27.8277 4.0858L28.4481 2.22264Z" fill="#D4D4D8"/>
<path d="M40.0486 2.22264C40.2223 1.70118 40.9782 1.70118 41.1519 2.22264L41.7722 4.0858C41.8499 4.319 42.0726 4.47689 42.3238 4.47689H44.3313C44.8932 4.47689 45.1268 5.17851 44.6722 5.5008L43.0481 6.65229C42.8449 6.79642 42.7598 7.05189 42.8374 7.2851L43.4578 9.14826C43.6314 9.66972 43.0198 10.1033 42.5653 9.78106L40.9412 8.62957C40.7379 8.48544 40.4626 8.48544 40.2593 8.62957L38.6353 9.78106C38.1807 10.1033 37.5691 9.66972 37.7427 9.14825L38.3631 7.2851C38.4407 7.05189 38.3557 6.79642 38.1524 6.65229L36.5283 5.5008C36.0737 5.17851 36.3073 4.47689 36.8692 4.47689H38.8767C39.128 4.47689 39.3507 4.319 39.4283 4.0858L40.0486 2.22264Z" fill="#D4D4D8"/>
<path d="M51.6483 2.22264C51.8219 1.70118 52.5779 1.70118 52.7515 2.22264L53.3718 4.0858C53.4495 4.319 53.6722 4.47689 53.9234 4.47689H55.9309C56.4928 4.47689 56.7264 5.17851 56.2718 5.5008L54.6478 6.65229C54.4445 6.79642 54.3594 7.05189 54.4371 7.2851L55.0574 9.14826C55.231 9.66972 54.6194 10.1033 54.1649 9.78106L52.5408 8.62957C52.3375 8.48544 52.0622 8.48544 51.859 8.62957L50.2349 9.78106C49.7803 10.1033 49.1687 9.66972 49.3423 9.14825L49.9627 7.2851C50.0403 7.05189 49.9553 6.79642 49.752 6.65229L48.1279 5.5008C47.6733 5.17851 47.9069 4.47689 48.4688 4.47689H50.4763C50.7276 4.47689 50.9503 4.319 51.0279 4.0858L51.6483 2.22264Z" fill="#D4D4D8"/>
</svg>
