<svg width="58" height="12" viewBox="0 0 58 12" fill="none" xmlns="http://www.w3.org/2000/svg">
<path d="M5.33327 2.22264C5.50971 1.70118 6.27795 1.70118 6.45439 2.22264L7.0848 4.0858C7.1637 4.319 7.39001 4.47689 7.64536 4.47689H9.68541C10.2564 4.47689 10.4938 5.17851 10.0319 5.5008L8.38142 6.65229C8.17484 6.79642 8.0884 7.05189 8.1673 7.2851L8.79771 9.14825C8.97415 9.66972 8.35264 10.1033 7.89071 9.78106L6.24027 8.62957C6.0337 8.48544 5.75397 8.48544 5.54739 8.62957L3.89695 9.78106C3.43503 10.1033 2.81351 9.66972 2.98995 9.14825L3.62036 7.2851C3.69927 7.05189 3.61282 6.79642 3.40625 6.65229L1.75581 5.5008C1.29389 5.17851 1.53128 4.47689 2.10225 4.47689H4.1423C4.39765 4.47689 4.62396 4.319 4.70286 4.0858L5.33327 2.22264Z" fill="#F59E0B"/>
<path d="M17.6424 2.22264C17.8188 1.70118 18.587 1.70118 18.7635 2.22264L19.3939 4.0858C19.4728 4.319 19.6991 4.47689 19.9544 4.47689H21.9945C22.5655 4.47689 22.8029 5.17851 22.3409 5.5008L20.6905 6.65229C20.4839 6.79642 20.3975 7.05189 20.4764 7.2851L21.1068 9.14825C21.2832 9.66972 20.6617 10.1033 20.1998 9.78106L18.5494 8.62957C18.3428 8.48544 18.063 8.48544 17.8565 8.62957L16.206 9.78106C15.7441 10.1033 15.1226 9.66972 15.299 9.14825L15.9294 7.2851C16.0083 7.05189 15.9219 6.79642 15.7153 6.65229L14.0649 5.5008C13.603 5.17851 13.8404 4.47689 14.4113 4.47689H16.4514C16.7067 4.47689 16.933 4.319 17.0119 4.0858L17.6424 2.22264Z" fill="#F59E0B"/>
<path d="M27.0029 9.57942L28.6533 8.42793C28.7467 8.36278 28.8551 8.32708 28.9648 8.32083V1.63086C28.7407 1.6431 28.5231 1.77314 28.4392 2.021L27.8088 3.88416C27.7299 4.11736 27.5036 4.27526 27.2483 4.27526H25.2082C24.6372 4.27526 24.3998 4.97688 24.8618 5.29916L26.5122 6.45065C26.7188 6.59478 26.8052 6.85026 26.7263 7.08346L26.0959 8.94662C25.9195 9.46808 26.541 9.90171 27.0029 9.57942Z" fill="#F59E0B"/>
<path d="M30.1909 3.88414L29.5604 2.02098C29.4683 1.74861 29.2147 1.6185 28.9683 1.63066V8.32062C29.1002 8.31383 29.2341 8.34959 29.3463 8.42791L30.9968 9.5794C31.4587 9.90168 32.0802 9.46806 31.9038 8.94659L31.2734 7.08344C31.1945 6.85023 31.2809 6.59476 31.4875 6.45063L33.1379 5.29914C33.5998 4.97685 33.3624 4.27523 32.7915 4.27523H30.7514C30.4961 4.27523 30.2698 4.11734 30.1909 3.88414Z" fill="#D4D4D8"/>
<path d="M39.2366 2.22264C39.413 1.70118 40.1813 1.70118 40.3577 2.22264L40.9881 4.0858C41.067 4.319 41.2933 4.47689 41.5487 4.47689H43.5887C44.1597 4.47689 44.3971 5.17851 43.9352 5.5008L42.2847 6.65229C42.0782 6.79642 41.9917 7.05189 42.0706 7.2851L42.701 9.14825C42.8775 9.66972 42.256 10.1033 41.794 9.78106L40.1436 8.62957C39.937 8.48544 39.6573 8.48544 39.4507 8.62957L37.8003 9.78106C37.3383 10.1033 36.7168 9.66972 36.8933 9.14825L37.5237 7.2851C37.6026 7.05189 37.5161 6.79642 37.3096 6.65229L35.6591 5.5008C35.1972 5.17851 35.4346 4.47689 36.0056 4.47689H38.0456C38.301 4.47689 38.5273 4.319 38.6062 4.0858L39.2366 2.22264Z" fill="#D4D4D8"/>
<path d="M51.5452 2.22264C51.7216 1.70118 52.4899 1.70118 52.6663 2.22264L53.2967 4.0858C53.3756 4.319 53.6019 4.47689 53.8573 4.47689H55.8973C56.4683 4.47689 56.7057 5.17851 56.2438 5.5008L54.5933 6.65229C54.3868 6.79642 54.3003 7.05189 54.3792 7.2851L55.0096 9.14825C55.1861 9.66972 54.5645 10.1033 54.1026 9.78106L52.4522 8.62957C52.2456 8.48544 51.9659 8.48544 51.7593 8.62957L50.1089 9.78106C49.6469 10.1033 49.0254 9.66972 49.2019 9.14825L49.8323 7.2851C49.9112 7.05189 49.8247 6.79642 49.6182 6.65229L47.9677 5.5008C47.5058 5.17851 47.7432 4.47689 48.3142 4.47689H50.3542C50.6096 4.47689 50.8359 4.319 50.9148 4.0858L51.5452 2.22264Z" fill="#D4D4D8"/>
</svg>
