<svg width="58" height="12" viewBox="0 0 58 12" fill="none" xmlns="http://www.w3.org/2000/svg">
<path d="M5.53229 2.22264C5.7153 1.70118 6.51216 1.70118 6.69517 2.22264L7.34907 4.0858C7.43092 4.319 7.66565 4.47689 7.93051 4.47689H10.0466C10.6388 4.47689 10.8851 5.17851 10.4059 5.5008L8.69399 6.65229C8.47972 6.79642 8.39006 7.05189 8.4719 7.2851L9.1258 9.14825C9.30881 9.66972 8.66414 10.1033 8.18501 9.78106L6.47308 8.62957C6.25881 8.48544 5.96866 8.48544 5.75438 8.62957L4.04246 9.78106C3.56332 10.1033 2.91865 9.66972 3.10166 9.14825L3.75556 7.2851C3.83741 7.05189 3.74774 6.79642 3.53347 6.65229L1.82154 5.5008C1.34241 5.17851 1.58865 4.47689 2.1809 4.47689H4.29695C4.56181 4.47689 4.79655 4.319 4.87839 4.0858L5.53229 2.22264Z" fill="#F59E0B"/>
<path d="M17.7598 2.22264C17.9428 1.70118 18.7397 1.70118 18.9227 2.22264L19.5766 4.0858C19.6585 4.319 19.8932 4.47689 20.1581 4.47689H22.2741C22.8664 4.47689 23.1126 5.17851 22.6335 5.5008L20.9215 6.65229C20.7073 6.79642 20.6176 7.05189 20.6994 7.2851L21.3533 9.14825C21.5364 9.66972 20.8917 10.1033 20.4125 9.78106L18.7006 8.62957C18.4863 8.48544 18.1962 8.48544 17.9819 8.62957L16.27 9.78106C15.7909 10.1033 15.1462 9.66972 15.3292 9.14825L15.9831 7.2851C16.0649 7.05189 15.9753 6.79642 15.761 6.65229L14.0491 5.5008C13.5699 5.17851 13.8162 4.47689 14.4084 4.47689H16.5245C16.7893 4.47689 17.0241 4.319 17.1059 4.0858L17.7598 2.22264Z" fill="#F59E0B"/>
<path d="M29.9869 2.22264C30.1699 1.70118 30.9668 1.70118 31.1498 2.22264L31.8037 4.0858C31.8855 4.319 32.1202 4.47689 32.3851 4.47689H34.5012C35.0934 4.47689 35.3396 5.17851 34.8605 5.5008L33.1486 6.65229C32.9343 6.79642 32.8446 7.05189 32.9265 7.2851L33.5804 9.14825C33.7634 9.66972 33.1187 10.1033 32.6396 9.78106L30.9277 8.62957C30.7134 8.48544 30.4232 8.48544 30.209 8.62957L28.497 9.78106C28.0179 10.1033 27.3732 9.66972 27.5563 9.14825L28.2101 7.2851C28.292 7.05189 28.2023 6.79642 27.9881 6.65229L26.2761 5.5008C25.797 5.17851 26.0432 4.47689 26.6355 4.47689H28.7515C29.0164 4.47689 29.2511 4.319 29.333 4.0858L29.9869 2.22264Z" fill="#F59E0B"/>
<path d="M39.1562 9.57942L40.8681 8.42793C40.965 8.36278 41.0774 8.32708 41.1912 8.32083V1.63086C40.9587 1.6431 40.733 1.77314 40.6461 2.021L39.9922 3.88416C39.9103 4.11736 39.6756 4.27526 39.4107 4.27526H37.2947C36.7024 4.27526 36.4562 4.97688 36.9353 5.29916L38.6472 6.45065C38.8615 6.59478 38.9512 6.85026 38.8693 7.08346L38.2154 8.94662C38.0324 9.46808 38.6771 9.90171 39.1562 9.57942Z" fill="#F59E0B"/>
<path d="M42.463 3.88414L41.8091 2.02098C41.7135 1.74861 41.4504 1.6185 41.1948 1.63066V8.32062C41.3317 8.31383 41.4705 8.34959 41.587 8.42791L43.2989 9.5794C43.778 9.90168 44.4227 9.46806 44.2397 8.94659L43.5858 7.08344C43.504 6.85023 43.5936 6.59476 43.8079 6.45063L45.5198 5.29914C45.9989 4.97685 45.7527 4.27523 45.1605 4.27523H43.0444C42.7795 4.27523 42.5448 4.11734 42.463 3.88414Z" fill="#D4D4D8"/>
<path d="M51.3052 2.22264C51.4883 1.70118 52.2851 1.70118 52.4681 2.22264L53.122 4.0858C53.2039 4.319 53.4386 4.47689 53.7035 4.47689H55.8195C56.4118 4.47689 56.658 5.17851 56.1789 5.5008L54.4669 6.65229C54.2527 6.79642 54.163 7.05189 54.2449 7.2851L54.8988 9.14825C55.0818 9.66972 54.4371 10.1033 53.958 9.78106L52.246 8.62957C52.0318 8.48544 51.7416 8.48544 51.5273 8.62957L49.8154 9.78106C49.3363 10.1033 48.6916 9.66972 48.8746 9.14825L49.5285 7.2851C49.6104 7.05189 49.5207 6.79642 49.3064 6.65229L47.5945 5.5008C47.1154 5.17851 47.3616 4.47689 47.9538 4.47689H50.0699C50.3348 4.47689 50.5695 4.319 50.6513 4.0858L51.3052 2.22264Z" fill="#D4D4D8"/>
</svg>
