<svg width="58" height="12" viewBox="0 0 58 12" fill="none" xmlns="http://www.w3.org/2000/svg">
<path d="M5.53228 2.22264C5.71529 1.70118 6.51215 1.70118 6.69516 2.22264L7.34906 4.0858C7.4309 4.319 7.66564 4.47689 7.9305 4.47689H10.0465C10.6388 4.47689 10.885 5.17851 10.4059 5.5008L8.69398 6.65229C8.4797 6.79642 8.39004 7.05189 8.47189 7.2851L9.12578 9.14825C9.30879 9.66972 8.66412 10.1033 8.18499 9.78106L6.47307 8.62957C6.2588 8.48544 5.96864 8.48544 5.75437 8.62957L4.04245 9.78106C3.56332 10.1033 2.91865 9.66972 3.10166 9.14825L3.75555 7.2851C3.8374 7.05189 3.74774 6.79642 3.53346 6.65229L1.82154 5.5008C1.34241 5.17851 1.58865 4.47689 2.18089 4.47689H4.29694C4.5618 4.47689 4.79654 4.319 4.87838 4.0858L5.53228 2.22264Z" fill="#F59E0B"/>
<path d="M17.7598 2.22264C17.9428 1.70118 18.7397 1.70118 18.9227 2.22264L19.5766 4.0858C19.6584 4.319 19.8932 4.47689 20.158 4.47689H22.2741C22.8663 4.47689 23.1126 5.17851 22.6334 5.5008L20.9215 6.65229C20.7072 6.79642 20.6176 7.05189 20.6994 7.2851L21.3533 9.14825C21.5363 9.66972 20.8917 10.1033 20.4125 9.78106L18.7006 8.62957C18.4863 8.48544 18.1962 8.48544 17.9819 8.62957L16.27 9.78106C15.7909 10.1033 15.1462 9.66972 15.3292 9.14825L15.9831 7.2851C16.0649 7.05189 15.9753 6.79642 15.761 6.65229L14.0491 5.5008C13.5699 5.17851 13.8162 4.47689 14.4084 4.47689H16.5245C16.7893 4.47689 17.0241 4.319 17.1059 4.0858L17.7598 2.22264Z" fill="#F59E0B"/>
<path d="M29.9869 2.22264C30.1699 1.70118 30.9667 1.70118 31.1498 2.22264L31.8036 4.0858C31.8855 4.319 32.1202 4.47689 32.3851 4.47689H34.5011C35.0934 4.47689 35.3396 5.17851 34.8605 5.5008L33.1486 6.65229C32.9343 6.79642 32.8446 7.05189 32.9265 7.2851L33.5804 9.14825C33.7634 9.66972 33.1187 10.1033 32.6396 9.78106L30.9277 8.62957C30.7134 8.48544 30.4232 8.48544 30.209 8.62957L28.497 9.78106C28.0179 10.1033 27.3732 9.66972 27.5562 9.14825L28.2101 7.2851C28.292 7.05189 28.2023 6.79642 27.9881 6.65229L26.2761 5.5008C25.797 5.17851 26.0432 4.47689 26.6355 4.47689H28.7515C29.0164 4.47689 29.2511 4.319 29.333 4.0858L29.9869 2.22264Z" fill="#F59E0B"/>
<path d="M42.2139 2.22264C42.3969 1.70118 43.1938 1.70118 43.3768 2.22264L44.0307 4.0858C44.1125 4.319 44.3473 4.47689 44.6121 4.47689H46.7282C47.3204 4.47689 47.5667 5.17851 47.0875 5.5008L45.3756 6.65229C45.1613 6.79642 45.0717 7.05189 45.1535 7.2851L45.8074 9.14825C45.9904 9.66972 45.3458 10.1033 44.8666 9.78106L43.1547 8.62957C42.9404 8.48544 42.6503 8.48544 42.436 8.62957L40.7241 9.78106C40.245 10.1033 39.6003 9.66972 39.7833 9.14825L40.4372 7.2851C40.519 7.05189 40.4294 6.79642 40.2151 6.65229L38.5032 5.5008C38.0241 5.17851 38.2703 4.47689 38.8625 4.47689H40.9786C41.2434 4.47689 41.4782 4.319 41.56 4.0858L42.2139 2.22264Z" fill="#F59E0B"/>
<path d="M51.3833 9.57942L53.0952 8.42793C53.1921 8.36278 53.3044 8.32708 53.4183 8.32083V1.63086C53.1858 1.6431 52.9601 1.77314 52.8731 2.021L52.2192 3.88416C52.1374 4.11736 51.9026 4.27526 51.6378 4.27526H49.5217C48.9295 4.27526 48.6832 4.97688 49.1624 5.29916L50.8743 6.45065C51.0886 6.59478 51.1782 6.85026 51.0964 7.08346L50.4425 8.94662C50.2595 9.46808 50.9041 9.90171 51.3833 9.57942Z" fill="#F59E0B"/>
<path d="M54.69 3.88414L54.0361 2.02098C53.9405 1.74861 53.6775 1.6185 53.4219 1.63066V8.32062C53.5588 8.31383 53.6976 8.34959 53.814 8.42791L55.5259 9.5794C56.0051 9.90168 56.6498 9.46806 56.4667 8.94659L55.8128 7.08344C55.731 6.85023 55.8207 6.59476 56.0349 6.45063L57.7469 5.29914C58.226 4.97685 57.9797 4.27523 57.3875 4.27523H55.2715C55.0066 4.27523 54.7719 4.11734 54.69 3.88414Z" fill="#D4D4D8"/>
</svg>
