<svg width="40" height="35" viewBox="0 0 40 35" fill="none" xmlns="http://www.w3.org/2000/svg">
<g clip-path="url(#clip0_89_309)">
<path d="M1.19157 3.93905C0.871272 3.93905 0.564093 3.81181 0.337609 3.58533C0.111124 3.35884 -0.0161133 3.05166 -0.0161133 2.73137C-0.0161133 2.41107 0.111124 2.10389 0.337609 1.87741C0.564093 1.65092 0.871272 1.52368 1.19157 1.52368H2.96566C3.98173 1.51214 4.98189 1.77652 5.85954 2.28866C7.4611 3.30103 7.7443 4.74959 8.15446 6.38696H21.7222C21.5304 7.16799 21.431 7.96883 21.4259 8.77303H8.83805L11.5627 19.0172H30.8628V18.9586C31.0972 18.9749 31.3315 18.9846 31.5692 18.9846C32.165 18.9841 32.7597 18.9319 33.3465 18.8284L32.9266 20.5178C32.8675 20.7806 32.7197 21.0151 32.5081 21.1817C32.2964 21.3483 32.0338 21.4369 31.7645 21.4325H12.2039C12.6304 23.0211 13.0601 23.8772 13.6427 24.2743C14.3459 24.7333 15.5698 24.7659 17.6173 24.7333H31.4715C31.6334 24.7249 31.7954 24.7494 31.9475 24.8056C32.0996 24.8617 32.2387 24.9482 32.3563 25.0598C32.4739 25.1715 32.5675 25.3058 32.6315 25.4548C32.6955 25.6038 32.7285 25.7642 32.7285 25.9264C32.7285 26.0885 32.6955 26.2489 32.6315 26.3979C32.5675 26.5469 32.4739 26.6812 32.3563 26.7929C32.2387 26.9045 32.0996 26.991 31.9475 27.0471C31.7954 27.1033 31.6334 27.1278 31.4715 27.1194H17.6466C15.1108 27.1519 13.5483 27.0901 12.2951 26.2633C11.0418 25.4364 10.342 23.939 9.66488 21.2795L5.56657 5.77499C5.56657 5.74243 5.56657 5.74243 5.53727 5.71314C5.48323 5.43421 5.37424 5.16882 5.21664 4.93242C5.05904 4.69603 4.85599 4.49335 4.6193 4.33618C4.10468 4.04761 3.51914 3.90997 2.92985 3.93905H1.19157ZM31.5757 0.410402C33.5227 0.40909 35.41 1.08303 36.9158 2.31735C38.4216 3.55168 39.4528 5.27 39.8336 7.17946C40.2144 9.08892 39.9212 11.0713 39.004 12.7888C38.0869 14.5064 36.6025 15.8527 34.8039 16.5983C33.0053 17.344 31.0037 17.4428 29.1404 16.878C27.277 16.3132 25.6672 15.1197 24.5853 13.5009C23.5034 11.8821 23.0163 9.9382 23.2071 8.00052C23.3979 6.06283 24.2548 4.25128 25.6317 2.87459C27.2079 1.29757 29.346 0.411191 31.5757 0.410402ZM35.2964 8.1936V9.45988C35.2964 9.53127 35.2823 9.60196 35.255 9.66792C35.2277 9.73387 35.1876 9.7938 35.1372 9.84428C35.0867 9.89476 35.0268 9.9348 34.9608 9.96212C34.8948 9.98944 34.8242 10.0035 34.7528 10.0035H32.7541V12.0022C32.7542 12.1439 32.6992 12.2801 32.6009 12.3822C32.5025 12.4842 32.3684 12.544 32.2267 12.5491H30.9507C30.8062 12.5482 30.6679 12.4902 30.5661 12.3878C30.4642 12.2853 30.4071 12.1467 30.4071 12.0022V10.0035H28.4084C28.2639 10.0035 28.1253 9.94633 28.0228 9.84448C27.9203 9.74262 27.8624 9.60436 27.8615 9.45988V8.1936C27.8624 8.04913 27.9203 7.91086 28.0228 7.80901C28.1253 7.70715 28.2639 7.64998 28.4084 7.64998H30.4071V5.65129C30.4071 5.50681 30.4642 5.3682 30.5661 5.26573C30.6679 5.16327 30.8062 5.10527 30.9507 5.10441H32.2267C32.3712 5.10527 32.5095 5.16327 32.6113 5.26573C32.7132 5.3682 32.7703 5.50681 32.7703 5.65129V7.64998H34.769C34.913 7.65084 35.0507 7.70839 35.1525 7.81015C35.2543 7.91192 35.3118 8.04969 35.3127 8.1936H35.2964ZM36.5073 3.89673C35.3666 2.75496 33.8652 2.04407 32.259 1.88522C30.6529 1.72637 29.0413 2.12937 27.699 3.02556C26.3567 3.92176 25.3666 5.25568 24.8976 6.80002C24.4285 8.34436 24.5095 10.0036 25.1267 11.4949C25.7439 12.9862 26.8592 14.2174 28.2824 14.9786C29.7056 15.7398 31.3487 15.984 32.9318 15.6694C34.5149 15.3549 35.9399 14.5012 36.964 13.2538C37.9882 12.0063 38.5481 10.4424 38.5483 8.82837C38.5494 7.91248 38.3696 7.0054 38.0194 6.15912C37.6691 5.31284 37.1553 4.54402 36.5073 3.89673ZM19.8244 11.2926C19.8642 11.1015 19.9687 10.9299 20.1202 10.8068C20.2716 10.6837 20.4609 10.6165 20.6561 10.6165C20.8513 10.6165 21.0405 10.6837 21.192 10.8068C21.3435 10.9299 21.4479 11.1015 21.4878 11.2926V15.9052C21.4513 16.099 21.3481 16.274 21.1963 16.4C21.0444 16.5259 20.8534 16.5948 20.6561 16.5948C20.4588 16.5948 20.2678 16.5259 20.1159 16.4C19.964 16.274 19.8609 16.099 19.8244 15.9052V11.2926ZM14.8407 11.2926C14.8805 11.1015 14.985 10.9299 15.1364 10.8068C15.2879 10.6837 15.4772 10.6165 15.6724 10.6165C15.8676 10.6165 16.0568 10.6837 16.2083 10.8068C16.3598 10.9299 16.4642 11.1015 16.5041 11.2926V15.9052C16.4675 16.099 16.3644 16.274 16.2126 16.4C16.0607 16.5259 15.8696 16.5948 15.6724 16.5948C15.4751 16.5948 15.284 16.5259 15.1322 16.4C14.9803 16.274 14.8772 16.099 14.8407 15.9052V11.2926ZM27.894 28.5452C28.4735 28.5452 29.0399 28.717 29.5217 29.0389C30.0035 29.3608 30.379 29.8184 30.6007 30.3537C30.8225 30.889 30.8805 31.4781 30.7674 32.0464C30.6544 32.6147 30.3754 33.1367 29.9656 33.5465C29.5559 33.9562 29.0339 34.2352 28.4656 34.3482C27.8973 34.4613 27.3082 34.4033 26.7729 34.1815C26.2376 33.9598 25.78 33.5843 25.4581 33.1025C25.1362 32.6207 24.9644 32.0543 24.9644 31.4749C24.9644 30.6979 25.273 29.9527 25.8224 29.4033C26.3719 28.8538 27.117 28.5452 27.894 28.5452ZM15.0164 28.5452C15.5959 28.5452 16.1623 28.717 16.6441 29.0389C17.1259 29.3608 17.5014 29.8184 17.7231 30.3537C17.9449 30.889 18.0029 31.4781 17.8898 32.0464C17.7768 32.6147 17.4978 33.1367 17.088 33.5465C16.6783 33.9562 16.1563 34.2352 15.588 34.3482C15.0197 34.4613 14.4306 34.4033 13.8953 34.1815C13.36 33.9598 12.9024 33.5843 12.5805 33.1025C12.2586 32.6207 12.0868 32.0543 12.0868 31.4749C12.0868 30.6979 12.3954 29.9527 12.9448 29.4033C13.4943 28.8538 14.2394 28.5452 15.0164 28.5452Z" fill="#FF5B00"/>
</g>
<defs>
<clipPath id="clip0_89_309">
<rect width="40" height="33.9909" fill="white" transform="translate(0 0.4104)"/>
</clipPath>
</defs>
</svg>
