<svg width="40" height="41" viewBox="0 0 40 41" fill="none" xmlns="http://www.w3.org/2000/svg">
<path d="M29.3751 11.6558C29.0688 15.7862 25.9376 19.1558 22.5001 19.1558C19.0626 19.1558 15.9258 15.787 15.6251 11.6558C15.3126 7.35889 18.3594 4.15576 22.5001 4.15576C26.6407 4.15576 29.6876 7.43701 29.3751 11.6558Z" stroke="#FF5B00" stroke-width="3" stroke-linecap="round" stroke-linejoin="round"/>
<path d="M22.4999 24.1558C15.703 24.1558 8.80457 27.9058 7.52801 34.9839C7.37176 35.837 7.85691 36.6558 8.75066 36.6558H36.2499C37.1436 36.6558 37.6264 35.837 37.4725 34.9839C36.1952 27.9058 29.2968 24.1558 22.4999 24.1558Z" stroke="#FF5B00" stroke-width="3" stroke-miterlimit="10"/>
<path d="M6.875 14.1558V22.9058M11.25 18.5308H2.5" stroke="#FF5B00" stroke-width="3" stroke-linecap="round" stroke-linejoin="round"/>
</svg>
