<svg width="25" height="25" viewBox="0 0 25 25" fill="none" xmlns="http://www.w3.org/2000/svg">
<path d="M12.1267 5.62988C8.47325 5.62988 4.72559 7.74441 1.77528 11.9735C1.69107 12.0955 1.64492 12.2398 1.64266 12.388C1.64041 12.5363 1.68216 12.6819 1.76262 12.8064C4.0295 16.3549 7.727 19.1299 12.1267 19.1299C16.4786 19.1299 20.252 16.3464 22.5231 12.79C22.6017 12.6679 22.6435 12.5258 22.6435 12.3806C22.6435 12.2354 22.6017 12.0932 22.5231 11.9711C20.2468 8.45551 16.4457 5.62988 12.1267 5.62988Z" stroke="black" stroke-linecap="round" stroke-linejoin="round"/>
<path d="M12.1426 16.1299C14.2136 16.1299 15.8926 14.451 15.8926 12.3799C15.8926 10.3088 14.2136 8.62988 12.1426 8.62988C10.0715 8.62988 8.39258 10.3088 8.39258 12.3799C8.39258 14.451 10.0715 16.1299 12.1426 16.1299Z" stroke="black" stroke-miterlimit="10"/>
</svg>
