<svg width="36" height="41" viewBox="0 0 36 41" fill="none" xmlns="http://www.w3.org/2000/svg">
<g clip-path="url(#clip0_89_311)">
<path d="M3.38574 35.6339C4.93848 35.4906 9.2679 35.1196 10.6253 33.0265C10.762 32.8149 11.8949 30.9366 11.8949 30.9268L16.5693 32.7074C16.6702 33.2185 13.9294 37.0466 13.4313 37.46C12.7965 37.9874 12.1878 38.2771 11.5433 38.5212C9.37858 39.335 7.5166 39.9926 5.06217 40.406L3.38574 35.6339ZM13.0537 16.503L11.055 23.7426C10.5798 26.0831 11.0941 28.0655 13.2979 29.4327C14.4469 30.1456 14.7692 30.1098 16.0843 30.4906L22.1553 31.8839C22.5166 31.9653 29.7301 37.8051 30.4072 38.3878L33.5225 35.5818C33.9749 35.1749 26.335 28.4334 25.0036 27.7725C18.682 24.6378 18.415 28.2218 20.7946 19.1755C22.0023 20.3539 22.917 21.669 25.2087 22.5675C27.9984 23.2804 29.5544 22.2973 31.8753 21.5453L35.3226 20.3051L33.835 16.1026L30.3877 17.3429C30.29 17.3754 30.0426 17.4666 29.6097 17.6163C28.5355 17.8767 27.585 18.5603 26.9046 18.2315C24.6488 17.141 23.3109 12.5382 17.012 12.0369C16.0648 11.962 14.3037 11.7244 12.93 11.6853C7.82259 11.3891 6.08105 13.3031 3.28483 16.1742C1.99902 17.4177 1.97949 17.4047 0.680664 18.6384L3.9847 21.9262C5.29329 20.6827 5.32259 20.6892 6.61816 19.4327C7.79329 18.3097 8.59733 17.1508 9.80501 16.656C10.5895 16.3337 11.6019 16.4672 12.8063 16.49C12.8909 16.4965 12.9723 16.4998 13.0537 16.503ZM18.9489 0.64364C21.488 -0.179927 24.2158 1.21005 25.0426 3.75236C25.8662 6.29143 24.4762 9.01929 21.9339 9.84612C19.3949 10.6697 16.667 9.27971 15.8402 6.73739C15.0166 4.19507 16.4098 1.46721 18.9489 0.64364Z" fill="#FF5B00"/>
<path d="M3.38574 35.6339C4.93848 35.4906 9.2679 35.1196 10.6253 33.0265C10.762 32.8149 11.8949 30.9366 11.8949 30.9268L16.5693 32.7074C16.6702 33.2185 13.9294 37.0466 13.4313 37.46C12.7965 37.9874 12.1878 38.2771 11.5433 38.5212C9.37858 39.335 7.5166 39.9926 5.06217 40.406L3.38574 35.6339ZM13.0537 16.503L11.055 23.7426C10.5798 26.0831 11.0941 28.0655 13.2979 29.4327C14.4469 30.1456 14.7692 30.1098 16.0843 30.4906L22.1553 31.8839C22.5166 31.9653 29.7301 37.8051 30.4072 38.3878L33.5225 35.5818C33.9749 35.1749 26.335 28.4334 25.0036 27.7725C18.682 24.6378 18.415 28.2218 20.7946 19.1755C22.0023 20.3539 22.917 21.669 25.2087 22.5675C27.9984 23.2804 29.5544 22.2973 31.8753 21.5453L35.3226 20.3051L33.835 16.1026L30.3877 17.3429C30.29 17.3754 30.0426 17.4666 29.6097 17.6163C28.5355 17.8767 27.585 18.5603 26.9046 18.2315C24.6488 17.141 23.3109 12.5382 17.012 12.0369C16.0648 11.962 14.3037 11.7244 12.93 11.6853C7.82259 11.3891 6.08105 13.3031 3.28483 16.1742C1.99902 17.4177 1.97949 17.4047 0.680664 18.6384L3.9847 21.9262C5.29329 20.6827 5.32259 20.6892 6.61816 19.4327C7.79329 18.3097 8.59733 17.1508 9.80501 16.656C10.5895 16.3337 11.6019 16.4672 12.8063 16.49C12.8909 16.4965 12.9723 16.4998 13.0537 16.503ZM18.9489 0.64364C21.488 -0.179927 24.2158 1.21005 25.0426 3.75236C25.8662 6.29143 24.4762 9.01929 21.9339 9.84612C19.3949 10.6697 16.667 9.27971 15.8402 6.73739C15.0166 4.19507 16.4098 1.46721 18.9489 0.64364Z" fill="#FF5B00"/>
</g>
<defs>
<clipPath id="clip0_89_311">
<rect width="34.6387" height="40" fill="white" transform="translate(0.680664 0.405762)"/>
</clipPath>
</defs>
</svg>
