<svg width="103" height="16" viewBox="0 0 103 16" fill="none" xmlns="http://www.w3.org/2000/svg">
<path d="M1.1626 6.91821C0.610313 6.91821 0.162598 7.36593 0.162598 7.91821C0.162598 8.4705 0.610313 8.91821 1.1626 8.91821V6.91821ZM101.87 8.62532C102.26 8.2348 102.26 7.60163 101.87 7.21111L95.5057 0.847145C95.1152 0.456621 94.4821 0.456621 94.0915 0.847145C93.701 1.23767 93.701 1.87083 94.0915 2.26136L99.7484 7.91821L94.0915 13.5751C93.701 13.9656 93.701 14.5988 94.0915 14.9893C94.4821 15.3798 95.1152 15.3798 95.5057 14.9893L101.87 8.62532ZM1.1626 8.91821H101.163V6.91821H1.1626V8.91821Z" fill="#6E7C87"/>
</svg>
