<svg width="25" height="24" viewBox="0 0 25 24" fill="none" xmlns="http://www.w3.org/2000/svg">
<path fill-rule="evenodd" clip-rule="evenodd" d="M19.9405 4.55155C18.9697 3.58033 17.8165 2.81071 16.5471 2.287C15.2777 1.76328 13.9172 1.49581 12.5441 1.49999C6.78125 1.49999 2.09 6.1678 2.08766 11.9062C2.08511 13.7335 2.56676 15.5288 3.48359 17.1094L2 22.5L7.54297 21.053C9.07729 21.8842 10.7948 22.3192 12.5398 22.3186H12.5441C18.3064 22.3186 22.9972 17.6503 23 11.9123C23.0035 10.5438 22.7348 9.18832 22.2095 7.92465C21.6843 6.66097 20.913 5.51436 19.9405 4.55155ZM12.5441 20.5622H12.5403C10.9847 20.5626 9.45739 20.1463 8.11719 19.3566L7.79984 19.1691L4.51062 20.0278L5.38859 16.8361L5.18187 16.508C4.31206 15.1309 3.85121 13.535 3.85297 11.9062C3.85297 7.13764 7.75344 3.2578 12.5473 3.2578C14.847 3.25369 17.0542 4.16321 18.6833 5.78629C20.3125 7.40938 21.2302 9.61312 21.2347 11.9128C21.2328 16.6819 17.3342 20.5622 12.5441 20.5622ZM17.3108 14.0845C17.0497 13.9542 15.7639 13.3251 15.5258 13.2384C15.2877 13.1517 15.1119 13.1081 14.938 13.3687C14.7641 13.6294 14.263 14.2125 14.1106 14.3883C13.9583 14.5641 13.8059 14.5833 13.5448 14.453C13.2838 14.3226 12.4414 14.0484 11.4434 13.1625C10.6667 12.473 10.1427 11.6217 9.99031 11.3616C9.83797 11.1014 9.97391 10.9603 10.1047 10.8309C10.2223 10.7142 10.3658 10.5272 10.4966 10.3753C10.6273 10.2234 10.6709 10.1147 10.7577 9.94124C10.8444 9.7678 10.8012 9.61592 10.7361 9.48608C10.6709 9.35624 10.1483 8.07608 9.93078 7.5553C9.71844 7.04811 9.50328 7.11702 9.34297 7.10905C9.19062 7.10155 9.01484 7.09968 8.84188 7.09968C8.70965 7.10312 8.57955 7.13378 8.4597 7.18975C8.33985 7.24573 8.23283 7.3258 8.14531 7.42499C7.90578 7.68561 7.23078 8.31561 7.23078 9.59436C7.23078 10.8731 8.16828 12.1106 8.29766 12.284C8.42703 12.4575 10.1398 15.0839 12.7606 16.2103C13.2473 16.4187 13.7445 16.6015 14.2503 16.7578C14.8761 16.9556 15.4456 16.928 15.8956 16.8609C16.3977 16.7864 17.4425 16.2319 17.6595 15.6244C17.8766 15.0169 17.877 14.4966 17.8119 14.3883C17.7467 14.28 17.5723 14.2144 17.3108 14.0845Z" fill="black"/>
</svg>
